# xmcd
#
# Track frame offsets: 
#        183
#        17133
#        29718
#        47510
#        64160
#        77855
#        94228
#        109980
#        127235
#        142568
#        159090
#        176988
#        194668
#        213118
#        229150
#        246483
#        261993
#        281973
#        295623
#
# Disc length: 4133 seconds
#
# Revision: 3
# Processed by: cddbd v1.5.2PL0 Copyright (c) Steve Scherf et al.
# Submitted via: ExactAudioCopyFreeDBPlugin 1.0
#
DISCID=23102313
DTITLE=Diana Ross - Anthology - Disc 2
DYEAR=1981
DGENRE=Soul
TTITLE0=Love Hangover
TTITLE1=Gettin' Ready For Love
TTITLE2=Your Love Is So Good For Me
TTITLE3=You Got It
TTITLE4=Top Of The World
TTITLE5=Lovin' Livin' Givin'
TTITLE6=What You Gave Me
TTITLE7=The Boss
TTITLE8=It's My House
TTITLE9=Upside Down
TTITLE10=I'm Coming Out
TTITLE11=It's My Turn
TTITLE12=One More Chance
TTITLE13=Crying My Heart Out For You
TTITLE14=My Old Piano
TTITLE15=My Man (Mon Homme)
TTITLE16=Endless Love
TTITLE17=Imagine
TTITLE18=Too Shy To Say
EXTD=YEAR: 1981 ID3G: 42
EXTT0=
EXTT1=
EXTT2=
EXTT3=
EXTT4=
EXTT5=
EXTT6=
EXTT7=
EXTT8=
EXTT9=
EXTT10=
EXTT11=
EXTT12=
EXTT13=
EXTT14=
EXTT15=
EXTT16=
EXTT17=
EXTT18=
PLAYORDER=
